<svg width="40" height="40" viewBox="0 0 40 40" xmlns="http://www.w3.org/2000/svg">
  <circle cx="20" cy="20" r="20" fill="#FF6040"/>
  <path fill="#FFFFFF" fill-rule="evenodd" d="M27.24 10c0.28 0 0.54 0.1 0.73 0.3 0.2 0.2 0.3 0.46 0.3 0.73v0.7h0.7c0.27 0 0.53 0.1 0.73 0.3 0.2 0.2 0.3 0.45 0.3 0.73 0 0.27-0.1 0.54-0.3 0.73-0.2 0.2-0.46 0.3-0.73 0.3h-0.7v6.9h0.7c0.27 0 0.53 0.1 0.73 0.3 0.2 0.2 0.3 0.46 0.3 0.73 0 0.28-0.1 0.54-0.3 0.74-0.2 0.19-0.46 0.3-0.73 0.3h-0.7v0.69c0 0.27-0.1 0.54-0.3 0.73-0.2 0.2-0.45 0.3-0.73 0.3-0.27 0-0.54-0.1-0.73-0.3-0.2-0.2-0.3-0.46-0.3-0.73v-0.7h-3.45v3.46h0.69c0.27 0 0.54 0.1 0.73 0.3 0.2 0.2 0.3 0.46 0.3 0.73 0 0.28-0.1 0.54-0.3 0.73-0.2 0.2-0.46 0.3-0.73 0.3h-0.7v0.7c0 0.27-0.1 0.53-0.3 0.73C22.27 29.9 22 30 21.73 30c-0.27 0-0.53-0.1-0.73-0.3-0.2-0.2-0.3-0.46-0.3-0.73v-0.7h-6.9v0.7c0 0.27-0.1 0.53-0.3 0.73-0.2 0.2-0.46 0.3-0.73 0.3-0.28 0-0.54-0.1-0.73-0.3-0.2-0.2-0.3-0.46-0.3-0.73v-0.7h-0.7c-0.27 0-0.53-0.1-0.73-0.3-0.2-0.2-0.3-0.45-0.3-0.73 0-0.27 0.1-0.54 0.3-0.73 0.2-0.2 0.46-0.3 0.73-0.3h0.7v-6.9h-0.7c-0.27 0-0.53-0.1-0.73-0.3-0.2-0.2-0.3-0.46-0.3-0.73 0-0.28 0.1-0.54 0.3-0.74 0.2-0.19 0.46-0.3 0.73-0.3h0.7v-0.69c0-0.27 0.1-0.54 0.3-0.73 0.2-0.2 0.45-0.3 0.73-0.3 0.27 0 0.54 0.1 0.73 0.3 0.2 0.2 0.3 0.46 0.3 0.73v0.7h3.45v-3.46h-0.69c-0.27 0-0.54-0.1-0.73-0.3-0.2-0.2-0.3-0.46-0.3-0.73 0-0.28 0.1-0.54 0.3-0.73 0.2-0.2 0.46-0.3 0.73-0.3h0.7v-0.7c0-0.27 0.1-0.53 0.3-0.73 0.19-0.2 0.45-0.3 0.73-0.3 0.27 0 0.53 0.1 0.73 0.3 0.2 0.2 0.3 0.46 0.3 0.73v0.7h6.9v-0.7c0-0.27 0.1-0.53 0.3-0.73 0.2-0.2 0.46-0.3 0.73-0.3Zm-7.93 7.24h1.38v-0.69c0-0.27 0.1-0.54 0.3-0.73 0.2-0.2 0.46-0.3 0.73-0.3 0.28 0 0.54 0.1 0.74 0.3 0.19 0.2 0.3 0.46 0.3 0.73v0.7h0.69c0.27 0 0.54 0.1 0.73 0.3 0.2 0.19 0.3 0.45 0.3 0.73 0 0.27-0.1 0.53-0.3 0.73-0.2 0.2-0.46 0.3-0.73 0.3h-0.7v1.38h3.46v-6.9h-6.9v3.45Zm-5.52 8.97v-6.9h6.9v6.9h-6.9Z"/>
</svg>
