<svg width="40" height="40" viewBox="0 0 40 40" xmlns="http://www.w3.org/2000/svg">
  <circle cx="20" cy="20" r="20" fill="#FF9F1A"/>
  <path fill="#FFFFFF" d="M18.62 12.58l-1.4 0.53c-0.11 0.04-0.19 0.15-0.19 0.27 0 0.11 0.08 0.22 0.19 0.26l1.4 0.53 0.52 1.4c0.04 0.1 0.15 0.18 0.27 0.18 0.11 0 0.22-0.07 0.26-0.18l0.53-1.4 1.4-0.53c0.1-0.04 0.18-0.15 0.18-0.26 0-0.12-0.07-0.23-0.18-0.27l-1.4-0.53-0.53-1.4c-0.04-0.1-0.15-0.18-0.26-0.18-0.12 0-0.23 0.07-0.27 0.19l-0.52 1.4Zm-7 13.1c-0.7 0.69-0.7 1.82 0 2.52l1.28 1.28c0.7 0.7 1.82 0.7 2.52 0l14.15-14.16c0.7-0.69 0.7-1.82 0-2.52l-1.28-1.28c-0.7-0.7-1.82-0.7-2.52 0L11.62 25.68Zm16.27-11.61l-3.9 3.9-0.86-0.87 3.9-3.9 0.86 0.87Zm-17.7 1.28c-0.17 0.06-0.29 0.22-0.29 0.4 0 0.18 0.12 0.34 0.28 0.4l2.1 0.79 0.79 2.1c0.06 0.16 0.22 0.27 0.4 0.27 0.18 0 0.34-0.1 0.4-0.27l0.79-2.1 2.1-0.79c0.16-0.06 0.27-0.22 0.27-0.4 0-0.18-0.11-0.34-0.28-0.4l-2.1-0.79-0.78-2.1c-0.06-0.16-0.22-0.27-0.4-0.27-0.18 0-0.34 0.1-0.4 0.28l-0.79 2.1-2.1 0.78Zm13.06 9.5c-0.17 0.06-0.28 0.22-0.28 0.4 0 0.18 0.11 0.34 0.28 0.4l2.1 0.79 0.78 2.1c0.06 0.16 0.22 0.28 0.4 0.28 0.18 0 0.34-0.12 0.4-0.28l0.79-2.1 2.1-0.79c0.16-0.06 0.28-0.22 0.28-0.4 0-0.18-0.12-0.34-0.28-0.4l-2.1-0.79-0.79-2.1c-0.06-0.16-0.22-0.27-0.4-0.27-0.18 0-0.34 0.11-0.4 0.28l-0.79 2.1-2.1 0.78Z"/>
</svg>
