<svg width="68" height="65" viewBox="0 0 68 65" xmlns="http://www.w3.org/2000/svg">
  <defs>
    <linearGradient id="stroke" x1="34" y1="0" x2="34" y2="64.14">
      <stop offset="0" stop-color="#D4E0FF"/>
      <stop offset="1" stop-color="#A9C0FF"/>
    </linearGradient>
    <linearGradient id="fill" x1="34" y1="4.47" x2="34" y2="59.67">
      <stop offset="0" stop-color="#12183FBF"/>
      <stop offset="1" stop-color="#FF183FBF"/>
    </linearGradient>
  </defs>
  <path stroke="url(#stroke)" stroke-width="32.07" fill="none" d="M16.97 32.06c0-8.85 7.18-16.03 16.03-16.03h2.01c8.85 0 16.03 7.18 16.03 16.03v0.01c0 8.85-7.18 16.03-16.03 16.03h-2.01c-8.85 0-16.03-7.18-16.03-16.03z"/>
  <path fill="url(#fill)" d="M5.4 32.07c0-15.24 12.36-27.6 27.6-27.6h2.01c15.24 0 27.6 12.36 27.6 27.6v0.01c0 15.24-12.36 27.6-27.6 27.6h-2.01c-15.24 0-27.6-12.36-27.6-27.6z"/>
  <path fill="#FFFFFF" fill-rule="evenodd" d="M31.53 44h5.94c4.18 0 6.27 0 7.77-0.98 0.65-0.42 1.2-0.97 1.64-1.6 1-1.47 1-3.52 1-7.6 0-4.09 0-6.13-1-7.6-0.43-0.63-1-1.18-1.64-1.6-0.96-0.63-2.17-0.86-4.02-0.94-0.88 0-1.64-0.65-1.81-1.5-0.13-0.62-0.48-1.17-0.97-1.57-0.5-0.4-1.12-0.61-1.75-0.61H32.3c-1.32 0-2.46 0.91-2.72 2.18-0.17 0.85-0.93 1.5-1.81 1.5-1.85 0.08-3.06 0.3-4.02 0.94-0.65 0.42-1.2 0.97-1.64 1.6-1 1.47-1 3.51-1 7.6s0 6.13 1 7.6c0.43 0.63 0.99 1.17 1.64 1.6C25.26 44 27.35 44 31.53 44Zm2.97-15.64c-3.08 0-5.58 2.45-5.58 5.46 0 3 2.5 5.45 5.58 5.45s5.58-2.44 5.58-5.45c0-3.01-2.5-5.46-5.58-5.46Zm0 2.19c-1.85 0-3.35 1.46-3.35 3.27 0 1.8 1.5 3.27 3.35 3.27s3.35-1.46 3.35-3.27c0-1.8-1.5-3.27-3.35-3.27Zm6.32-1.1c0-0.6 0.5-1.09 1.12-1.09h1.48c0.62 0 1.12 0.5 1.12 1.1 0 0.29-0.12 0.57-0.33 0.77-0.21 0.2-0.5 0.32-0.79 0.32h-1.48c-0.15 0-0.3-0.03-0.43-0.08-0.13-0.06-0.25-0.14-0.36-0.24-0.1-0.1-0.18-0.22-0.24-0.35-0.06-0.14-0.09-0.28-0.09-0.43Z"/>
</svg>
