<svg width="24" height="24" viewBox="0 0 24 24" xmlns="http://www.w3.org/2000/svg">
  <path fill="#BEB7DB" fill-rule="evenodd" d="M12 3c-0.56 0-1.05 0.36-2.03 1.08L8.5 5.17 8.18 5.39 7.84 5.55 6.16 6.28C5.04 6.77 4.49 7.01 4.2 7.5 3.92 7.99 3.99 8.6 4.13 9.8l0.2 1.82L4.36 12c0 0.1 0 0.2-0.03 0.38l-0.2 1.82c-0.14 1.2-0.2 1.81 0.08 2.3 0.28 0.49 0.83 0.73 1.95 1.22l1.68 0.73 0.34 0.16 0.32 0.22 1.47 1.09C10.95 20.64 11.44 21 12 21c0.56 0 1.05-0.36 2.03-1.08l1.47-1.09 0.32-0.22 0.34-0.16 1.68-0.73c1.12-0.49 1.67-0.73 1.95-1.22 0.29-0.49 0.22-1.1 0.08-2.3l-0.2-1.82L19.64 12c0-0.1 0-0.2 0.03-0.38l0.2-1.82c0.14-1.2 0.2-1.81-0.08-2.3-0.28-0.49-0.83-0.73-1.95-1.22l-1.68-0.73-0.34-0.16-0.32-0.22-1.47-1.09C13.05 3.36 12.56 3 12 3Zm0 12.42c0.9 0 1.78-0.36 2.42-1 0.64-0.64 1-1.51 1-2.42 0-0.9-0.36-1.78-1-2.42-0.64-0.64-1.51-1-2.42-1-0.9 0-1.78 0.36-2.42 1-0.64 0.64-1 1.51-1 2.42 0 0.9 0.36 1.78 1 2.42 0.64 0.64 1.51 1 2.42 1Z"/>
</svg>
