<svg width="16" height="16" viewBox="0 0 16 16" xmlns="http://www.w3.org/2000/svg">
  <path fill="#BEB6DB" d="M1.5 2.75c0-0.33 0.13-0.65 0.37-0.88C2.1 1.63 2.42 1.5 2.75 1.5h1c0.33 0 0.65 0.13 0.88 0.37C4.87 2.1 5 2.42 5 2.75v10.5c0 0.33-0.13 0.65-0.37 0.88-0.23 0.24-0.55 0.37-0.88 0.37h-1c-0.33 0-0.65-0.13-0.88-0.37-0.24-0.23-0.37-0.55-0.37-0.88V2.75Zm4.5 0C6 2.42 6.13 2.1 6.37 1.87 6.6 1.63 6.92 1.5 7.25 1.5h1c0.33 0 0.65 0.13 0.88 0.37C9.37 2.1 9.5 2.42 9.5 2.75v10.5c0 0.33-0.13 0.65-0.37 0.88-0.23 0.24-0.55 0.37-0.88 0.37h-1c-0.33 0-0.65-0.13-0.88-0.37C6.13 13.9 6 13.58 6 13.25V2.75Zm4.9 1.05c-0.65 0.18-1.03 0.87-0.86 1.54l2.14 8.23c0.17 0.67 0.84 1.07 1.48 0.89l0.94-0.26c0.65-0.18 1.03-0.87 0.86-1.54l-2.14-8.23c-0.17-0.67-0.84-1.07-1.48-0.89L10.9 3.8Z"/>
</svg>
